<svg id="Layer_1" data-name="Layer 1" xmlns="http://www.w3.org/2000/svg" viewBox="0 0 500 99.89"><title>logo</title><path d="M6.38,40.91C2.26,46.63,0,53.8,0,62.7c0,9.7,2.13,17.4,6.77,23.38,6.78,9,19.4,13.68,37.33,13.68,19,0,29.89-5.84,35.74-13.42a31.2,31.2,0,0,0,5.71-17.93H58.85a12.41,12.41,0,0,1-1.46,5.45c-2.26,3.58-6.25,5.44-12.49,5.44s-10.89-1.72-13.15-5c-2.13-2.53-2.92-6.65-2.92-11.43,0-4.25.93-8.1,3.05-10.89,2.26-3.32,6.38-5.18,12.49-5.18,6.91,0,10.89,2.66,12.88,6.11a10.85,10.85,0,0,1,1.46,5.84h27A40.81,40.81,0,0,0,82.49,44.5C77.71,33.74,66.68,25.77,43.84,25.77,26.3,25.77,13.28,31,6.38,40.91"/><path d="M94.58,0V91.26c0,6.38,0,7.17.53,7.44H124.2c-.79-.67-.79-2.66-.79-6.51V0Z"/><path d="M136.69,27.5v62c0,7.57.27,8.77,1.2,9h28.82c-.66-.4-.66-1.86-.66-9v-62Z"/><rect x="136.56" width="29.62" height="19.53"/><path d="M259.17,48.22c-5.72-13.42-18.73-22.45-39.72-22.45-17.14,0-29.63,5.45-37.06,14.88-4.92,6-7.18,13.55-7.18,22.18,0,9.57,2.39,17,6.64,22.58,7.18,10,20.06,14.48,37.33,14.48,17,0,28.69-4,35.47-11.82a29.15,29.15,0,0,0,6.77-12.49H233.53c-.27.27-1.86,5.72-14.35,5.72-6.11,0-11-1.6-13.28-4.52a12.09,12.09,0,0,1-2.39-7h58.58A48.07,48.07,0,0,0,259.17,48.22Zm-55.66,8.63a13.63,13.63,0,0,1,2.79-7.3c2.52-2.92,7-4.78,12.88-4.78,6.11,0,10.5,2.12,12.62,4.91a11.75,11.75,0,0,1,2.13,7.17Z"/><path d="M298.22,37.59V27.5h-27.9V98.7h28.83V60.18c0-6.51,5.18-11,12.22-11s10.1,4,10.1,10.89c0,37.6,0,38.66,1.19,38.66H351c-.53-.27-.53-3.72-.53-45,0-17-8-27.77-27-27.77-11.16,0-21.12,3.86-25.24,11.69"/><path d="M367.56,9s-.26,16.08-.8,18.6h-9V50.48H367V77.71c0,17.14,12.89,22.18,24.57,22.18,8.64,0,16.61-.93,20.46-2.25V77.44a37.16,37.16,0,0,1-8.1.93c-5.58,0-7.84-1.72-7.84-6.5V50.48h16.74v-23H395.72V8.9H367.56Z"/><path d="M421.76,27.5v62c0,7.57.26,8.77,1.19,9h28.83c-.66-.4-.66-1.86-.66-9v-62Z"/><rect x="421.63" width="29.62" height="19.53"/><path d="M461,79.57a19.53,19.53,0,1,0,19.52-19.93A19.73,19.73,0,0,0,461,79.57"/></svg>